<?xml version="1.0" standalone="no"?>
<!DOCTYPE svg PUBLIC "-//W3C//DTD SVG 20010904//EN"
 "http://www.w3.org/TR/2001/REC-SVG-20010904/DTD/svg10.dtd">
<svg version="1.0" xmlns="http://www.w3.org/2000/svg"
 width="500.000000pt" height="500.000000pt" viewBox="0 0 500.000000 500.000000"
 preserveAspectRatio="xMidYMid meet">
<metadata>
Created by potrace 1.14, written by Peter Selinger 2001-2017
</metadata>
<g transform="translate(0.000000,500.000000) scale(0.100000,-0.100000)"
fill="#000000" stroke="none">
<path d="M2473 4988 c-13 -6 -23 -15 -23 -20 0 -4 -5 -8 -10 -8 -6 0 -94 -48
-196 -107 -102 -60 -209 -121 -238 -138 -53 -30 -378 -218 -406 -235 -15 -9
-288 -167 -350 -203 -19 -11 -60 -33 -90 -50 -30 -16 -59 -33 -65 -38 -5 -4
-53 -32 -105 -61 -52 -30 -183 -106 -290 -168 -107 -62 -220 -126 -250 -142
-30 -17 -62 -37 -71 -44 -8 -8 -21 -14 -27 -14 -14 0 -19 -590 -14 -1770 l2
-745 53 -29 c28 -16 104 -59 167 -96 63 -37 196 -113 295 -170 99 -57 302
-174 450 -261 149 -86 289 -167 310 -179 37 -20 126 -71 167 -95 18 -10 315
-182 346 -200 9 -5 69 -40 133 -77 63 -36 132 -76 153 -87 20 -12 47 -28 59
-35 24 -15 44 -9 122 39 22 14 81 47 130 75 50 28 104 59 120 69 17 10 134 78
260 151 127 73 273 158 325 188 52 30 112 64 132 76 20 12 87 50 149 86 62 36
133 77 158 91 38 21 338 195 473 273 20 11 99 57 177 101 l140 80 3 215 c2
118 2 683 0 1255 l-2 1041 -38 19 c-20 11 -53 29 -72 41 -31 19 -312 182 -400
232 -19 11 -120 69 -225 129 -292 169 -646 374 -682 394 -73 42 -107 61 -313
181 -312 181 -430 248 -432 247 -2 0 -13 -5 -25 -11z"/>
</g>
</svg>
